<?xml version="1.0" standalone="no"?>
<!DOCTYPE svg PUBLIC "-//W3C//DTD SVG 20010904//EN"
        "http://www.w3.org/TR/2001/REC-SVG-20010904/DTD/svg10.dtd">
<svg version="1.0" xmlns="http://www.w3.org/2000/svg"
     width="787.000000pt" height="787.000000pt" viewBox="0 0 787.000000 787.000000"
     preserveAspectRatio="xMidYMid meet">
    <metadata>
        Created by potrace 1.14, written by Peter Selinger 2001-2017
    </metadata>
    <g transform="translate(0.000000,787.000000) scale(0.100000,-0.100000)"
       fill="#000000" stroke="none">
        <path d="M3658 7854 c-2 -1 -48 -5 -103 -9 -54 -3 -106 -12 -114 -18 -12 -9
-13 -9 -7 1 4 6 2 12 -3 12 -6 0 -11 -4 -11 -8 0 -5 -6 -9 -12 -9 -7 0 -33 -3
-58 -6 -25 -3 -70 -9 -100 -12 -30 -4 -61 -12 -69 -18 -12 -10 -13 -9 -6 3 7
12 6 13 -6 3 -8 -7 -31 -14 -50 -17 -95 -13 -124 -19 -129 -25 -3 -3 -12 -8
-20 -9 -32 -8 -56 -13 -90 -18 -19 -3 -37 -9 -40 -14 -3 -4 -35 -13 -72 -20
-37 -8 -65 -17 -63 -20 3 -4 -22 -13 -55 -20 -33 -7 -60 -16 -60 -21 0 -4 -15
-10 -32 -14 -18 -4 -46 -13 -63 -20 -43 -18 -68 -28 -84 -31 -8 -1 -17 -7 -20
-13 -3 -5 -20 -13 -36 -17 -17 -4 -50 -18 -74 -31 -24 -12 -50 -23 -57 -23 -8
0 -14 -4 -14 -10 0 -5 -18 -15 -40 -21 -22 -7 -40 -16 -40 -20 0 -4 -17 -13
-37 -20 -21 -6 -40 -15 -43 -18 -7 -10 -103 -65 -113 -66 -4 0 -11 -4 -15 -10
-4 -5 -24 -18 -44 -27 -21 -10 -38 -22 -38 -28 0 -5 -7 -10 -16 -10 -9 0 -29
-11 -46 -25 -16 -14 -36 -25 -44 -25 -9 0 -13 -4 -10 -9 3 -5 -8 -14 -24 -20
-17 -5 -30 -14 -30 -19 0 -5 -12 -14 -27 -21 -15 -7 -33 -21 -41 -32 -7 -11
-17 -17 -22 -14 -5 3 -14 -4 -20 -15 -6 -11 -15 -18 -19 -16 -4 3 -18 -6 -29
-19 -12 -14 -26 -25 -32 -25 -5 0 -10 -8 -11 -17 0 -12 -2 -14 -6 -5 -4 10 -9
8 -20 -7 -8 -12 -21 -21 -29 -21 -8 0 -12 -4 -9 -10 3 -5 2 -10 -2 -10 -5 0
-23 -13 -41 -30 -18 -16 -37 -30 -43 -30 -5 0 -8 -3 -7 -7 2 -5 0 -8 -3 -8
-10 0 -39 -33 -39 -44 0 -6 -4 -10 -9 -9 -11 4 -231 -217 -231 -232 0 -6 -5
-8 -10 -5 -6 3 -10 2 -10 -4 0 -6 -19 -31 -42 -55 -24 -25 -53 -58 -65 -73
-39 -50 -78 -98 -90 -111 -6 -6 -15 -21 -18 -32 -4 -11 -11 -18 -16 -15 -5 4
-9 0 -9 -8 0 -8 -9 -22 -19 -31 -11 -10 -25 -31 -31 -47 -7 -16 -16 -27 -20
-24 -5 3 -13 -9 -19 -25 -5 -17 -14 -30 -19 -30 -4 0 -14 -16 -22 -35 -8 -19
-18 -35 -22 -35 -9 0 -32 -50 -30 -62 1 -5 -2 -8 -7 -8 -10 0 -20 -17 -58 -90
-10 -19 -21 -37 -25 -40 -4 -3 -14 -22 -22 -42 -9 -20 -20 -39 -25 -42 -5 -4
-12 -20 -16 -36 -4 -17 -11 -30 -15 -30 -5 0 -15 -18 -21 -40 -7 -22 -15 -40
-19 -40 -4 0 -13 -20 -20 -45 -7 -25 -16 -45 -20 -45 -4 0 -13 -20 -20 -45 -7
-25 -16 -45 -20 -45 -5 0 -13 -22 -20 -50 -7 -27 -15 -50 -20 -50 -4 0 -13
-27 -20 -61 -7 -33 -16 -56 -20 -50 -3 6 -12 -17 -19 -52 -7 -34 -17 -67 -21
-73 -5 -5 -15 -40 -22 -76 -7 -37 -16 -65 -20 -62 -4 2 -7 -4 -7 -13 0 -29
-21 -136 -31 -158 -5 -11 -12 -40 -16 -65 -4 -25 -9 -48 -10 -52 -1 -5 -2 -24
-3 -44 0 -21 -5 -33 -11 -29 -6 4 -10 -13 -11 -42 0 -26 -2 -57 -4 -68 -6 -29
-14 -122 -17 -182 -2 -28 -6 -49 -9 -47 -9 5 -12 -96 -11 -374 0 -178 4 -237
14 -249 9 -12 10 -15 1 -9 -7 4 -13 3 -13 -3 0 -5 4 -11 9 -13 4 -1 11 -46 15
-98 4 -52 9 -117 13 -145 3 -27 6 -61 5 -74 0 -18 2 -20 9 -10 6 10 9 4 10
-21 1 -19 3 -39 4 -45 1 -5 5 -30 9 -55 4 -25 11 -54 16 -65 4 -11 13 -53 20
-93 8 -50 15 -70 23 -65 7 4 5 -2 -3 -12 -8 -10 -10 -16 -4 -12 7 4 15 -18 23
-58 7 -36 16 -65 20 -65 4 0 8 -6 9 -12 2 -26 23 -103 31 -113 5 -5 14 -34 22
-62 7 -29 16 -53 20 -53 7 0 34 -89 30 -103 -1 -5 3 -6 8 -3 4 3 14 -15 21
-39 7 -25 16 -45 19 -45 4 0 13 -20 20 -45 7 -25 16 -45 21 -45 4 0 13 -18 20
-40 7 -22 17 -40 22 -40 4 0 8 -7 8 -15 0 -14 18 -53 30 -65 12 -12 30 -51 30
-65 0 -9 5 -13 10 -10 6 3 11 1 11 -4 4 -35 20 -61 33 -54 6 3 8 3 4 -2 -8 -8
17 -58 39 -83 7 -7 16 -24 19 -38 3 -13 10 -22 14 -19 4 3 13 -9 19 -25 5 -17
14 -30 19 -30 4 0 14 -16 22 -35 7 -19 17 -32 21 -29 4 2 10 -4 14 -15 3 -10
17 -31 30 -47 14 -16 25 -34 25 -39 0 -6 9 -16 20 -23 12 -7 18 -17 15 -22 -3
-5 4 -14 15 -20 11 -6 20 -15 20 -21 0 -5 15 -25 34 -44 19 -18 32 -36 29 -39
-3 -3 2 -8 11 -12 9 -3 16 -11 16 -18 0 -6 9 -17 20 -24 11 -7 20 -19 20 -28
0 -8 3 -13 7 -11 5 3 14 -1 21 -9 7 -8 10 -14 7 -14 -3 0 61 -67 144 -150 83
-82 155 -150 160 -150 5 0 13 -9 16 -20 4 -11 10 -18 15 -15 5 3 15 -3 22 -13
7 -10 33 -33 58 -51 25 -18 49 -39 53 -47 4 -8 14 -14 22 -14 8 0 19 -9 25
-20 6 -11 15 -18 21 -15 5 4 9 1 9 -4 0 -6 7 -11 16 -11 8 0 13 -4 10 -9 -3
-5 8 -14 24 -21 17 -7 30 -17 30 -22 0 -5 13 -14 30 -19 16 -6 28 -16 27 -22
-1 -6 3 -11 8 -12 6 0 24 -10 42 -23 17 -12 36 -22 42 -22 7 0 14 -7 17 -15 3
-8 21 -20 40 -27 19 -6 34 -15 34 -19 0 -4 14 -12 30 -19 17 -7 30 -16 30 -20
0 -4 11 -11 24 -14 14 -3 31 -12 38 -19 7 -6 45 -28 83 -47 39 -19 76 -40 83
-47 7 -7 22 -13 32 -13 10 0 26 -7 34 -16 9 -9 22 -17 29 -18 39 -8 67 -19 67
-26 0 -7 12 -11 63 -25 4 -2 15 -3 25 -4 13 -1 14 -3 4 -9 -8 -6 7 -13 43 -21
30 -7 55 -16 55 -20 0 -7 36 -18 68 -21 4 -1 17 -8 29 -16 22 -14 120 -40 136
-36 5 2 6 -2 2 -8 -3 -5 0 -10 7 -11 34 -2 76 -12 103 -24 27 -12 52 -18 140
-32 17 -3 33 -9 36 -15 3 -5 9 -9 13 -8 6 2 47 -4 121 -17 36 -6 45 -8 65 -16
22 -8 94 -17 185 -24 44 -3 86 -10 94 -17 12 -8 13 -8 7 2 -4 6 -3 12 3 12 5
0 11 -4 13 -9 6 -18 411 -28 633 -16 28 1 74 3 103 4 39 1 51 4 46 14 -6 9 -4
9 7 -1 7 -6 18 -12 24 -12 5 0 3 5 -5 10 -12 8 -10 9 10 8 24 -1 116 8 190 18
19 3 44 6 55 7 11 1 22 5 25 9 3 4 31 10 62 13 32 3 71 10 88 15 17 5 39 6 48
4 13 -5 14 -4 4 4 -10 6 10 13 67 22 44 8 78 17 76 21 -3 4 1 6 8 6 27 -2 136
26 131 34 -3 5 -2 9 3 10 46 3 79 11 101 24 29 15 112 40 125 37 5 -2 6 2 3 7
-3 5 16 15 44 22 27 7 50 16 50 20 0 4 22 13 50 20 27 7 47 16 44 20 -2 4 18
13 46 20 29 7 45 16 38 20 -7 4 4 10 25 14 21 4 40 11 43 16 3 5 10 6 16 3 6
-4 8 -2 4 4 -3 6 9 15 31 23 21 6 49 20 62 30 13 11 30 19 37 19 8 0 14 3 14
8 0 4 15 13 33 21 17 8 35 19 39 25 4 6 11 12 15 12 25 5 53 17 53 24 0 5 9
12 20 15 11 3 26 12 32 18 20 19 110 77 120 77 5 0 6 5 3 10 -3 6 0 10 8 10
13 0 73 41 108 75 9 8 21 15 27 15 7 0 12 4 12 10 0 5 14 17 30 25 18 9 28 21
24 27 -4 6 -3 8 3 5 6 -4 16 0 23 8 7 8 19 15 28 15 8 0 12 3 9 7 -9 8 13 34
24 28 4 -3 13 4 19 15 6 11 17 20 25 20 8 0 15 7 15 15 0 9 8 19 17 22 24 9
273 258 273 272 0 7 3 10 8 8 4 -3 13 1 20 9 7 8 11 14 8 14 -3 0 6 11 19 25
14 13 25 29 25 35 0 6 5 8 10 5 6 -3 15 6 20 20 5 14 14 24 18 21 4 -2 14 9
21 25 7 16 16 27 21 24 4 -3 13 8 20 24 6 16 18 32 26 35 8 3 14 12 14 20 0 9
9 20 21 26 11 7 18 14 15 17 -3 3 4 14 15 24 11 9 20 20 19 24 -1 4 8 18 19
32 12 13 27 35 33 48 6 14 14 23 18 20 3 -2 12 12 19 31 7 18 16 34 20 34 5 0
14 14 21 30 7 17 15 30 19 30 3 0 12 15 20 32 8 18 19 36 25 40 6 4 12 11 12
15 5 25 17 53 24 53 5 0 14 16 20 35 6 19 16 33 21 29 5 -3 9 -2 8 3 -4 16 23
73 34 73 7 0 5 5 -3 10 -11 7 -11 10 -2 10 7 0 18 14 23 30 6 17 15 30 21 30
5 0 7 4 3 9 -3 5 0 13 5 16 12 7 34 55 32 68 -1 4 2 7 8 7 5 0 10 8 10 18 0 9
6 28 13 42 7 14 19 46 26 73 8 26 18 47 23 47 5 0 7 4 3 9 -3 5 -1 12 4 16 6
3 13 26 17 51 3 25 10 41 13 35 4 -6 13 18 20 54 9 43 17 63 25 58 6 -3 8 -3
5 1 -4 4 -1 28 7 53 8 25 12 49 9 53 -3 5 0 14 7 22 15 16 16 20 32 113 7 39
15 63 18 55 4 -10 7 -6 8 10 1 14 3 34 5 45 2 11 7 43 11 70 3 28 8 53 11 57
5 9 11 38 19 98 10 70 11 82 13 130 1 33 4 41 11 30 5 -8 10 -10 10 -4 0 5 -6
16 -12 23 -9 10 -9 12 -1 7 7 -4 12 0 11 11 0 10 3 68 7 128 16 221 5 705 -15
730 -5 6 -9 20 -8 30 0 21 -9 112 -18 180 -4 22 -7 47 -8 55 -1 9 -5 21 -10
28 -4 7 -9 27 -11 45 -2 18 -7 52 -11 77 -4 25 -7 49 -5 53 1 5 -3 6 -7 3 -8
-5 -38 137 -34 157 2 5 -2 6 -6 3 -5 -3 -15 22 -22 57 -6 34 -16 64 -20 67 -4
3 -11 21 -15 40 -4 19 -9 48 -12 64 -4 17 -8 24 -13 16 -4 -7 -10 4 -15 27 -3
21 -13 52 -20 68 -18 42 -28 68 -31 84 -1 8 -8 17 -14 21 -7 4 -11 9 -10 11 1
2 -3 17 -9 32 -6 16 -11 34 -11 42 0 7 -5 15 -11 17 -5 2 -11 10 -13 18 -5 26
-19 55 -35 74 -9 10 -15 20 -13 22 6 9 -11 53 -18 49 -5 -3 -14 12 -20 32 -7
21 -18 45 -25 53 -14 18 -29 52 -27 63 1 4 -3 7 -9 7 -5 0 -15 14 -20 30 -6
17 -14 30 -18 30 -4 0 -13 16 -21 35 -7 19 -19 36 -27 39 -7 3 -13 14 -13 24
0 11 -9 31 -20 45 -11 14 -20 30 -20 36 0 6 -4 11 -10 11 -5 0 -17 16 -26 35
-9 19 -20 33 -24 30 -4 -2 -13 8 -21 23 -8 14 -20 33 -27 42 -40 46 -62 76
-62 85 0 6 -9 16 -20 23 -11 7 -20 19 -20 28 0 8 -5 12 -10 9 -6 -4 -15 7 -21
24 -6 17 -15 28 -20 25 -5 -3 -14 6 -20 20 -7 14 -16 23 -20 20 -5 -3 -9 1 -9
9 0 7 -11 23 -25 35 -14 12 -25 26 -25 32 0 5 -7 10 -15 10 -8 0 -15 6 -15 14
0 8 -7 17 -16 20 -8 3 -12 10 -9 16 3 5 -1 10 -9 10 -9 0 -16 4 -16 9 0 5 -27
36 -61 68 -33 32 -70 68 -82 81 -11 12 -27 22 -34 22 -7 0 -13 7 -13 15 0 8
-5 15 -10 15 -6 0 -20 11 -32 25 -12 14 -28 25 -35 25 -8 0 -12 4 -9 9 3 5 -1
14 -9 21 -8 7 -15 9 -15 5 0 -4 -11 4 -25 19 -13 14 -29 26 -35 26 -6 0 -8 5
-5 10 3 6 -1 10 -9 10 -9 0 -21 9 -28 20 -7 11 -18 20 -24 20 -7 0 -22 11 -35
25 -13 13 -28 25 -33 25 -5 0 -16 7 -25 15 -48 43 -59 52 -77 60 -10 5 -23 9
-29 10 -5 0 -9 6 -8 12 1 6 -11 16 -27 22 -17 5 -30 14 -30 19 0 8 -27 21 -53
26 -4 0 -12 8 -17 16 -5 8 -13 15 -17 15 -9 1 -106 56 -113 65 -5 7 -40 23
-53 24 -4 1 -11 6 -15 12 -4 6 -24 17 -44 25 -21 7 -38 16 -38 19 0 4 -18 13
-40 20 -22 7 -40 16 -40 20 0 4 -20 13 -45 20 -24 7 -42 16 -39 21 3 5 -3 9
-13 9 -11 0 -24 5 -31 12 -7 7 -12 8 -12 4 0 -5 -10 -1 -23 7 -13 8 -43 21
-68 28 -24 7 -50 19 -56 25 -7 7 -31 15 -53 19 -22 4 -40 10 -40 14 0 4 -24
13 -52 21 -29 7 -56 18 -60 24 -5 7 -8 6 -8 -4 0 -11 -2 -12 -8 -2 -5 7 -19
15 -33 18 -13 3 -31 7 -39 9 -8 2 -23 4 -33 4 -10 1 -16 5 -13 9 2 4 -28 14
-67 21 -40 7 -75 18 -79 25 -5 7 -8 6 -8 -4 0 -10 -3 -11 -8 -3 -4 6 -44 17
-89 24 -45 7 -79 17 -77 21 3 4 0 8 -5 8 -6 0 -11 -6 -11 -12 0 -10 -2 -10 -8
-2 -7 13 -35 18 -147 30 -38 3 -73 12 -77 18 -5 7 -8 6 -8 -4 0 -10 -3 -11 -8
-4 -11 17 -176 27 -479 29 -150 1 -274 1 -275 -1z"/>
    </g>
</svg>
